<?xml version="1.0" encoding="UTF-8" standalone="no"?>
<svg width="30px" height="30px" viewBox="0 0 30 30" version="1.1" xmlns="http://www.w3.org/2000/svg" xmlns:xlink="http://www.w3.org/1999/xlink" xmlns:sketch="http://www.bohemiancoding.com/sketch/ns">
    <!-- Generator: Sketch 3.2.2 (9983) - http://www.bohemiancoding.com/sketch -->
    <title>icons/community</title>
    <desc>Created with Sketch.</desc>
    <defs></defs>
    <g id="Page-1" stroke="none" stroke-width="1" fill="none" fill-rule="evenodd" sketch:type="MSPage">
        <g id="icons/community" sketch:type="MSArtboardGroup" fill="#FFFFFF">
            <path d="M6.00104344,24 L7,24 L5.99079514,29 L14,24 L23.9914698,24 C25.6530046,24 27,22.6552564 27,20.9941413 L27,9.00585866 C27,7.34931382 25.6576117,6 24.0092049,6 L5.99079514,6 C4.33706672,6 3,7.34672289 3,9.00585866 L3,20.9941413 C3,22.6525653 4.34614944,24 6.00104344,24 Z M24.0092049,8 C24.5507318,8 25,8.45158603 25,9.00585866 L25,20.9941413 C25,21.5499371 24.5491835,22 23.9914698,22 L13.5,22 L8.2,25.6 L9.3,22 L6.00104344,22 C5.45114641,22 5,21.5484229 5,20.9941413 L5,9.00585866 C5,8.44808353 5.44487071,8 5.99079514,8 L24.0092049,8 Z M8.50000001,15 C8.50000001,15.8284271 9.17157288,16.5 10,16.5 C10.8284271,16.5 11.5,15.8284271 11.5,15 C11.5,14.1715729 10.8284271,13.5 10,13.5 C9.17157288,13.5 8.50000001,14.1715729 8.50000001,15 Z M15,13.5 C14.1715729,13.5 13.5,14.1715729 13.5,15 C13.5,15.8284271 14.1715729,16.5 15,16.5 C15.8284271,16.5 16.5,15.8284271 16.5,15 C16.5,14.1715729 15.8284271,13.5 15,13.5 Z M20,13.5 C19.1715729,13.5 18.5,14.1715729 18.5,15 C18.5,15.8284271 19.1715729,16.5 20,16.5 C20.8284271,16.5 21.5,15.8284271 21.5,15 C21.5,14.1715729 20.8284271,13.5 20,13.5 Z" id="balloon" sketch:type="MSShapeGroup"></path>
        </g>
    </g>
</svg>