<?xml version="1.0" encoding="UTF-8" standalone="no"?>
<svg width="30px" height="30px" viewBox="0 0 30 30" version="1.1" xmlns="http://www.w3.org/2000/svg" xmlns:xlink="http://www.w3.org/1999/xlink" xmlns:sketch="http://www.bohemiancoding.com/sketch/ns">
    <!-- Generator: Sketch 3.2.2 (9983) - http://www.bohemiancoding.com/sketch -->
    <title>icons/innovation</title>
    <desc>Created with Sketch.</desc>
    <defs></defs>
    <g id="Page-1" stroke="none" stroke-width="1" fill="none" fill-rule="evenodd" sketch:type="MSPage">
        <g id="icons/innovation" sketch:type="MSArtboardGroup" fill="#FFFFFF">
            <path d="M10.0191929,4.9973917 L10.0191929,11.0024554 C10.0191929,11.3437742 9.82482782,11.9461966 9.62582651,12.2219599 L3.7727408,20.3327911 C0.340876499,24.699267 2.0041096,29 7.01339385,29 L23.0249929,29 C28.0350191,29 29.6989479,24.7010968 26.2410599,20.3001488 L20.4125593,12.2219599 C20.2138129,11.9465499 20.0191929,11.3436154 20.0191929,11.0024554 L20.0191929,4.9973917 C20.0191929,3.339782 18.6825832,2 17.0210916,2 L13.0172943,2 C11.3619955,2 10.0191929,3.34306609 10.0191929,4.9973917 Z M17.0210916,4 C17.576951,4 18.0191929,4.44329156 18.0191929,4.9973917 L18.0191929,11.0024554 C18.0191929,11.7635514 18.3460047,12.7760169 18.7907515,13.3923185 L24.6438376,21.5031497 C27.152409,24.6972282 26.2611007,27 23.0249929,27 L7.01339385,27 C3.77840839,27 2.88723354,24.6956296 5.3699631,21.535792 L11.2476344,13.3923184 C11.6926914,12.7755869 12.0191929,11.763616 12.0191929,11.0024554 L12.0191929,4.9973917 C12.0191929,4.44754774 12.4666528,4 13.0172943,4 L17.0210916,4 Z M14.0191929,25.5 C14.84762,25.5 15.5191929,24.8284271 15.5191929,24 C15.5191929,23.1715729 14.84762,22.5 14.0191929,22.5 C13.1907658,22.5 12.5191929,23.1715729 12.5191929,24 C12.5191929,24.8284271 13.1907658,25.5 14.0191929,25.5 Z M19.7691929,20.5 C19.7691929,19.2573593 18.7618336,18.25 17.5191929,18.25 C16.2765522,18.25 15.2691929,19.2573593 15.2691929,20.5 C15.2691929,21.7426407 16.2765522,22.75 17.5191929,22.75 C18.7618336,22.75 19.7691929,21.7426407 19.7691929,20.5 Z M16.7691929,20.5 C16.7691929,20.0857864 17.1049794,19.75 17.5191929,19.75 C17.9334065,19.75 18.2691929,20.0857864 18.2691929,20.5 C18.2691929,20.9142136 17.9334065,21.25 17.5191929,21.25 C17.1049794,21.25 16.7691929,20.9142136 16.7691929,20.5 Z M17.7691929,15 C17.7691929,13.4812169 16.537976,12.25 15.0191929,12.25 C13.5004099,12.25 12.2691929,13.4812169 12.2691929,15 C12.2691929,16.5187831 13.5004099,17.75 15.0191929,17.75 C16.537976,17.75 17.7691929,16.5187831 17.7691929,15 Z M13.7691929,15 C13.7691929,14.3096441 14.328837,13.75 15.0191929,13.75 C15.7095489,13.75 16.2691929,14.3096441 16.2691929,15 C16.2691929,15.6903559 15.7095489,16.25 15.0191929,16.25 C14.328837,16.25 13.7691929,15.6903559 13.7691929,15 Z" id="test.tube" sketch:type="MSShapeGroup"></path>
        </g>
    </g>
</svg>