<?xml version="1.0" encoding="UTF-8" standalone="no"?>
<svg width="30px" height="30px" viewBox="0 0 30 30" version="1.1" xmlns="http://www.w3.org/2000/svg" xmlns:xlink="http://www.w3.org/1999/xlink" xmlns:sketch="http://www.bohemiancoding.com/sketch/ns">
    <!-- Generator: Sketch 3.2.2 (9983) - http://www.bohemiancoding.com/sketch -->
    <title>icons/idea</title>
    <desc>Created with Sketch.</desc>
    <defs></defs>
    <g id="Page-1" stroke="none" stroke-width="1" fill="none" fill-rule="evenodd" sketch:type="MSPage">
        <g id="icons/idea" sketch:type="MSArtboardGroup" fill="#FFFFFF">
            <path d="M13,24 L17,24 L17,26 L13,26 L13,24 L13,24 Z M13,21 L17,21 L17,23 L13,23 L13,21 L13,21 Z M14,0.999807492 C14,0.447629061 14.4438648,0 15,0 C15.5522847,0 16,0.443716645 16,0.999807492 L16,4.00019251 C16,4.55237094 15.5561352,5 15,5 C14.4477153,5 14,4.55628335 14,4.00019251 L14,0.999807492 L14,0.999807492 Z M0.999807492,16 C0.447629061,16 -3.40534583e-17,15.5561352 0,15 C3.38176876e-17,14.4477153 0.443716645,14 0.999807492,14 L4.00019251,14 C4.55237094,14 5,14.4438648 5,15 C5,15.5522847 4.55628335,16 4.00019251,16 L0.999807492,16 L0.999807492,16 Z M25.9998075,16 C25.4476291,16 25,15.5561352 25,15 C25,14.4477153 25.4437166,14 25.9998075,14 L29.0001925,14 C29.5523709,14 30,14.4438648 30,15 C30,15.5522847 29.5562834,16 29.0001925,16 L25.9998075,16 L25.9998075,16 Z M4.39326216,5.80747572 C4.00281305,5.41702661 4.00015133,4.78664524 4.39339828,4.39339828 C4.78392257,4.00287399 5.41426011,4.00004655 5.80747572,4.39326216 L7.92906831,6.51485475 C8.31951742,6.90530386 8.32217914,7.53568523 7.92893219,7.92893219 C7.5384079,8.31945648 6.90807036,8.32228392 6.51485475,7.92906831 L4.39326216,5.80747572 L4.39326216,5.80747572 Z M22.0709317,23.4851453 C21.6804826,23.0946961 21.6778209,22.4643148 22.0710678,22.0710678 C22.4615921,21.6805435 23.0919296,21.6777161 23.4851453,22.0709317 L25.6067378,24.1925243 C25.997187,24.5829734 25.9998487,25.2133548 25.6066017,25.6066017 C25.2160774,25.997126 24.5857399,25.9999535 24.1925243,25.6067378 L22.0709317,23.4851453 L22.0709317,23.4851453 Z M5.80747572,25.6067378 C5.41702661,25.997187 4.78664524,25.9998487 4.39339828,25.6066017 C4.00287399,25.2160774 4.00004655,24.5857399 4.39326216,24.1925243 L6.51485475,22.0709317 C6.90530386,21.6804826 7.53568523,21.6778209 7.92893219,22.0710678 C8.31945648,22.4615921 8.32228392,23.0919296 7.92906831,23.4851453 L5.80747572,25.6067378 L5.80747572,25.6067378 Z M23.4851453,7.92906831 C23.0946961,8.31951742 22.4643148,8.32217914 22.0710678,7.92893219 C21.6805435,7.5384079 21.6777161,6.90807036 22.0709317,6.51485475 L24.1925243,4.39326216 C24.5829734,4.00281305 25.2133548,4.00015133 25.6066017,4.39339828 C25.997126,4.78392257 25.9999535,5.41426011 25.6067378,5.80747572 L23.4851453,7.92906831 L23.4851453,7.92906831 Z" id="Rectangle-1" sketch:type="MSShapeGroup"></path>
            <path d="M15,7 C10.498216,7 7,10.398267 7,14.7142857 C7,16.7873705 7.57170087,18.2150288 8.70711335,19.6923819 C8.77859193,19.7853869 9.46461952,20.6364632 9.61452489,20.8489489 C9.89093457,21.2407501 10,21.5144827 10,21.8069589 L10,27.2923015 C10,28.2434611 10.7952819,29 11.7477726,29 L18.2522274,29 C19.2013288,29 20,28.2475974 20,27.2923015 L20,21.8069589 C20,21.5144827 20.1090654,21.2407501 20.3854751,20.8489489 C20.5353805,20.6364632 21.2214081,19.7853869 21.2928866,19.6923819 C22.4282991,18.2150288 23,16.7873705 23,14.7142857 C23,10.398267 19.501784,7 15,7 Z M19.7071134,18.4736436 C19.6700767,18.5218342 18.9450248,19.4213235 18.7512331,19.6960165 C18.2573271,20.3961113 18,21.0419513 18,21.8069589 L18,27.2923015 C18,27.1154619 18.1225622,27 18.2522274,27 L11.7477726,27 C11.8781287,27 12,27.1159342 12,27.2923015 L12,21.8069589 C12,21.0419513 11.7426729,20.3961113 11.2487669,19.6960165 C11.0549752,19.4213235 10.3299233,18.5218342 10.2928866,18.4736436 C9.40749493,17.3216074 9,16.3040062 9,14.7142857 C9,11.5160187 11.5900193,9 15,9 C18.4099807,9 21,11.5160187 21,14.7142857 C21,16.3040062 20.5925051,17.3216074 19.7071134,18.4736436 Z" id="Oval-1" sketch:type="MSShapeGroup"></path>
        </g>
    </g>
</svg>